# xmcd
#
# Track frame offsets:
#	150
#	21941
#	38362
#	55692
#	71172
#	91581
#	115753
#	135680
#	167682
#	189067
#	208533
#	231081
#	250569
#	266209
#	285410
#	303505
#	323380
#	340488
#
# Disc length: 4798 seconds
#
# Revision: 0
# Processed by: cddbd v1.5.2PL0 Copyright (c) Steve Scherf et al.
# Submitted via: dBpowerAMP V4.0
#
DISCID=ea12bc12
DTITLE=Luther Vandross - The Ultimate Luther Vandross Special Collector's Editon
DYEAR=1900
DGENRE=Soul
TTITLE0=Shine
TTITLE1=Got You Home
TTITLE2=Never Too Much
TTITLE3=Take You Out
TTITLE4=Superstar/ Until You Come Back
TTITLE5=Here And Now
TTITLE6=Dance With My Father
TTITLE7=A House Is Not A Home
TTITLE8=Give Me The Reason
TTITLE9=I'd Rather
TTITLE10=Any Love
TTITLE11=Power Of Love/ Love Power
TTITLE12=Think About You
TTITLE13=Wait For Love
TTITLE14=Your Secret Love
TTITLE15=The Closer I Get To You (Duet With Beyonce)
TTITLE16=Buy Me A Rose
TTITLE17=Endless Love (Duet With Mariah Carey)
EXTD=The Ultimate Luther Vandross Special Collector's Edition
EXTT0=
EXTT1=
EXTT2=
EXTT3=
EXTT4=
EXTT5=
EXTT6=
EXTT7=
EXTT8=
EXTT9=
EXTT10=
EXTT11=
EXTT12=
EXTT13=
EXTT14=
EXTT15=
EXTT16=
EXTT17=
PLAYORDER=
